<?xml version="1.0" standalone="no"?>
<!DOCTYPE svg PUBLIC "-//W3C//DTD SVG 20010904//EN"
 "http://www.w3.org/TR/2001/REC-SVG-20010904/DTD/svg10.dtd">
<svg version="1.0" xmlns="http://www.w3.org/2000/svg"
 width="199.000000pt" height="199.000000pt" viewBox="0 0 199.000000 199.000000"
 preserveAspectRatio="xMidYMid meet">
<metadata>
Created by potrace 1.14, written by Peter Selinger 2001-2017
</metadata>
<g transform="translate(0.000000,199.000000) scale(0.100000,-0.100000)"
fill="#000000" stroke="none">
<path d="M515 1799 c-16 -15 -33 -27 -37 -28 -5 0 -8 -4 -7 -7 1 -3 -10 -18
-23 -32 l-24 -27 0 -472 1 -472 59 -60 58 -61 475 0 474 0 60 58 59 58 0 476
0 475 -60 59 -60 58 -472 1 -473 0 -30 -26z"/>
<path d="M561 321 l1 -131 33 0 34 0 -4 78 -3 77 24 -65 c14 -36 27 -71 29
-77 2 -7 15 -13 29 -13 21 0 27 9 49 73 l25 72 1 -72 1 -73 29 0 c16 0 31 6
33 13 2 6 3 64 3 127 l0 115 -40 3 -41 3 -28 -86 c-15 -48 -29 -85 -32 -83 -2
2 -16 40 -31 84 l-28 79 -43 3 -43 3 2 -130z"/>
<path d="M962 333 c-23 -65 -42 -124 -42 -130 0 -8 13 -13 30 -13 23 0 31 5
36 25 5 22 12 25 50 25 38 0 44 -3 50 -25 5 -20 12 -25 40 -25 l33 0 -40 113
c-23 61 -43 120 -46 130 -4 11 -15 17 -37 17 -32 0 -32 -1 -74 -117z m92 -15
c6 -25 3 -28 -18 -28 -23 0 -24 2 -13 35 11 38 21 36 31 -7z"/>
<path d="M1274 439 c-71 -35 -73 -202 -3 -240 31 -16 81 -18 111 -3 29 15 58
50 58 71 0 22 -48 14 -74 -12 -29 -29 -35 -30 -60 -12 -22 16 -27 116 -7 141
19 23 50 20 76 -8 16 -17 30 -23 44 -19 25 6 25 6 6 44 -24 45 -97 64 -151 38z"/>
</g>
</svg>
